<svg xmlns="http://www.w3.org/2000/svg" width="128" height="128" viewBox="0 0 128 128">
  <defs>
    <linearGradient id="g" x1="0" y1="0" x2="1" y2="1">
      <stop offset="0%" stop-color="#6366f1"/>
      <stop offset="100%" stop-color="#a855f7"/>
    </linearGradient>
  </defs>
  <rect width="128" height="128" rx="28" fill="url(#g)"/>
  <g fill="#fff">
    <!-- þGF -->
    <rect x="28" y="36" width="56" height="44" rx="6" fill="none" stroke="#fff" stroke-width="4"/>
    <circle cx="44" cy="52" r="5"/>
    <path d="M34 74 L48 60 L60 70 L74 56 L80 64 L80 76 L34 76 Z"/>
    <!-- ęI -->
    <path d="M92 28 l4 10 10 4 -10 4 -4 10 -4 -10 -10 -4 10 -4 z"/>
    <path d="M100 70 l2.5 6 6 2.5 -6 2.5 -2.5 6 -2.5 -6 -6 -2.5 6 -2.5 z"/>
  </g>
</svg>
